# xmcd CD database file
#
# Track frame offsets:
#	150
#	25878
#	47165
#	72973
#
# Disc length: 1254 seconds
#
# Revision: 3
# Processed by: cddbd v1.5.2PL0 Copyright (c) Steve Scherf et al.
# Submitted via: CDex 1.70beta3
#
DISCID=3004e404
DTITLE=石川智晶 - Prototype
DYEAR=2008
DGENRE=JPop
TTITLE0=Prototype
TTITLE1=squall
TTITLE2=Prototype (without Vocal)
TTITLE3=squall (without Vocal)
EXTD=YEAR: 2008
EXTT0=
EXTT1=
EXTT2=
EXTT3=
PLAYORDER=
